<?xml version="1.0" encoding="UTF-8" standalone="no"?>
<svg
   width="128"
   height="128"
   version="1.1"
   viewBox="0 0 33.866 33.866"
   id="svg1157"
   sodipodi:docname="view-app-grid.svg"
   inkscape:version="1.1 (c68e22c387, 2021-05-23)"
   xmlns:inkscape="http://www.inkscape.org/namespaces/inkscape"
   xmlns:sodipodi="http://sodipodi.sourceforge.net/DTD/sodipodi-0.dtd"
   xmlns:xlink="http://www.w3.org/1999/xlink"
   xmlns="http://www.w3.org/2000/svg"
   xmlns:svg="http://www.w3.org/2000/svg">
  <sodipodi:namedview
     id="namedview1159"
     pagecolor="#ffffff"
     bordercolor="#666666"
     borderopacity="1.0"
     inkscape:pageshadow="2"
     inkscape:pageopacity="0.0"
     inkscape:pagecheckerboard="0"
     showgrid="false"
     inkscape:zoom="2.419631"
     inkscape:cx="19.837736"
     inkscape:cy="98.775392"
     inkscape:window-width="1366"
     inkscape:window-height="706"
     inkscape:window-x="0"
     inkscape:window-y="0"
     inkscape:window-maximized="1"
     inkscape:current-layer="svg1157" />
  <defs
     id="defs1093">
    <linearGradient
       id="linearGradient1372"
       x1="34.705"
       x2="34.705"
       y1="-30.727"
       y2="-38.74"
       gradientTransform="matrix(.5297 0 0 .5297 -1.0863 27.968)"
       gradientUnits="userSpaceOnUse">
      <stop
         stop-color="#64baff"
         offset="0"
         id="stop983" />
      <stop
         stop-color="#64baff"
         offset="1"
         id="stop985" />
    </linearGradient>
    <linearGradient
       id="linearGradient1380"
       x1="32.125"
       x2="32.125"
       y1="-29.828"
       y2="-39.838"
       gradientTransform="matrix(.5297 0 0 .5297 -1.0863 27.968)"
       gradientUnits="userSpaceOnUse">
      <stop
         stop-color="#64baff"
         offset="0"
         id="stop988" />
      <stop
         stop-color="#64baff"
         offset="1"
         id="stop990" />
    </linearGradient>
    <linearGradient
       id="linearGradient1384"
       x1="34.705"
       x2="34.705"
       y1="-30.727"
       y2="-38.74"
       gradientTransform="matrix(.5297 0 0 .5297 -8.67 27.968)"
       gradientUnits="userSpaceOnUse">
      <stop
         stop-color="#64baff"
         offset="0"
         id="stop993" />
      <stop
         stop-color="#64baff"
         offset="1"
         id="stop995" />
    </linearGradient>
    <linearGradient
       id="linearGradient1386"
       x1="32.125"
       x2="32.125"
       y1="-29.828"
       y2="-39.838"
       gradientTransform="matrix(.5297 0 0 .5297 -8.67 27.968)"
       gradientUnits="userSpaceOnUse">
      <stop
         stop-color="#64baff"
         offset="0"
         id="stop998" />
      <stop
         stop-color="#64baff"
         offset="1"
         id="stop1000" />
    </linearGradient>
    <linearGradient
       id="linearGradient1402"
       x1="34.705"
       x2="34.705"
       y1="-30.727"
       y2="-38.74"
       gradientTransform="matrix(.5297 0 0 .5297 6.2792 27.968)"
       gradientUnits="userSpaceOnUse">
      <stop
         stop-color="#64baff"
         offset="0"
         id="stop1003" />
      <stop
         stop-color="#64baff"
         offset="1"
         id="stop1005" />
    </linearGradient>
    <linearGradient
       id="linearGradient1404"
       x1="32.125"
       x2="32.125"
       y1="-29.828"
       y2="-39.838"
       gradientTransform="matrix(.5297 0 0 .5297 6.2792 27.968)"
       gradientUnits="userSpaceOnUse">
      <stop
         stop-color="#64baff"
         offset="0"
         id="stop1008" />
      <stop
         stop-color="#64baff"
         offset="1"
         id="stop1010" />
    </linearGradient>
    <linearGradient
       id="linearGradient1514"
       x1="34.705"
       x2="34.705"
       y1="-30.727"
       y2="-38.74"
       gradientTransform="matrix(.5297 0 0 .5297 -8.67 35.368)"
       gradientUnits="userSpaceOnUse">
      <stop
         stop-color="#64baff"
         offset="0"
         id="stop1013" />
      <stop
         stop-color="#64baff"
         offset="1"
         id="stop1015" />
    </linearGradient>
    <linearGradient
       id="linearGradient1516"
       x1="32.125"
       x2="32.125"
       y1="-29.828"
       y2="-39.838"
       gradientTransform="matrix(.5297 0 0 .5297 -8.67 35.368)"
       gradientUnits="userSpaceOnUse">
      <stop
         stop-color="#64baff"
         offset="0"
         id="stop1018" />
      <stop
         stop-color="#64baff"
         offset="1"
         id="stop1020" />
    </linearGradient>
    <linearGradient
       id="linearGradient1560"
       x1="34.705"
       x2="34.705"
       y1="-30.727"
       y2="-38.74"
       gradientTransform="matrix(.5297 0 0 .5297 -1.0863 35.368)"
       gradientUnits="userSpaceOnUse">
      <stop
         stop-color="#64baff"
         offset="0"
         id="stop1023" />
      <stop
         stop-color="#64baff"
         offset="1"
         id="stop1025" />
    </linearGradient>
    <linearGradient
       id="linearGradient1562"
       x1="32.125"
       x2="32.125"
       y1="-29.828"
       y2="-39.838"
       gradientTransform="matrix(.5297 0 0 .5297 -1.0863 35.368)"
       gradientUnits="userSpaceOnUse">
      <stop
         stop-color="#64baff"
         offset="0"
         id="stop1028" />
      <stop
         stop-color="#64baff"
         offset="1"
         id="stop1030" />
    </linearGradient>
    <linearGradient
       id="linearGradient1590"
       x1="34.705"
       x2="34.705"
       y1="-30.727"
       y2="-38.74"
       gradientTransform="matrix(.5297 0 0 .5297 6.2792 35.368)"
       gradientUnits="userSpaceOnUse">
      <stop
         stop-color="#64baff"
         offset="0"
         id="stop1033" />
      <stop
         stop-color="#64baff"
         offset="1"
         id="stop1035" />
    </linearGradient>
    <linearGradient
       id="linearGradient1592"
       x1="32.125"
       x2="32.125"
       y1="-29.828"
       y2="-39.838"
       gradientTransform="matrix(.5297 0 0 .5297 6.2792 35.368)"
       gradientUnits="userSpaceOnUse">
      <stop
         stop-color="#64baff"
         offset="0"
         id="stop1038" />
      <stop
         stop-color="#64baff"
         offset="1"
         id="stop1040" />
    </linearGradient>
    <linearGradient
       id="linearGradient1620"
       x1="34.705"
       x2="34.705"
       y1="-30.727"
       y2="-38.74"
       gradientTransform="matrix(.5297 0 0 .5297 -8.67 42.768)"
       gradientUnits="userSpaceOnUse">
      <stop
         stop-color="#64baff"
         offset="0"
         id="stop1043" />
      <stop
         stop-color="#64baff"
         offset="1"
         id="stop1045" />
    </linearGradient>
    <linearGradient
       id="linearGradient1622"
       x1="32.125"
       x2="32.125"
       y1="-29.828"
       y2="-39.838"
       gradientTransform="matrix(.5297 0 0 .5297 -8.67 42.768)"
       gradientUnits="userSpaceOnUse">
      <stop
         stop-color="#64baff"
         offset="0"
         id="stop1048" />
      <stop
         stop-color="#64baff"
         offset=".946"
         id="stop1050" />
      <stop
         stop-color="#64baff"
         offset="1"
         id="stop1052" />
    </linearGradient>
    <linearGradient
       id="linearGradient1653"
       x1="34.705"
       x2="34.705"
       y1="-30.727"
       y2="-38.74"
       gradientTransform="matrix(.5297 0 0 .5297 -1.0863 42.768)"
       gradientUnits="userSpaceOnUse">
      <stop
         stop-color="#64baff"
         offset="0"
         id="stop1055" />
      <stop
         stop-color="#64baff"
         offset="1"
         id="stop1057" />
    </linearGradient>
    <linearGradient
       id="linearGradient1655"
       x1="32.125"
       x2="32.125"
       y1="-29.828"
       y2="-39.838"
       gradientTransform="matrix(.5297 0 0 .5297 -1.0863 42.768)"
       gradientUnits="userSpaceOnUse">
      <stop
         stop-color="#64baff"
         offset="0"
         id="stop1060" />
      <stop
         stop-color="#64baff"
         offset=".946"
         id="stop1062" />
      <stop
         stop-color="#64baff"
         offset="1"
         id="stop1064" />
    </linearGradient>
    <linearGradient
       id="linearGradient1685"
       x1="34.705"
       x2="34.705"
       y1="-30.727"
       y2="-38.74"
       gradientTransform="matrix(.5297 0 0 .5297 6.2792 42.768)"
       gradientUnits="userSpaceOnUse">
      <stop
         stop-color="#64baff"
         offset="0"
         id="stop1067" />
      <stop
         stop-color="#64baff"
         offset="1"
         id="stop1069" />
    </linearGradient>
    <linearGradient
       id="linearGradient1687"
       x1="32.125"
       x2="32.125"
       y1="-29.828"
       y2="-39.838"
       gradientTransform="matrix(.5297 0 0 .5297 6.2792 42.768)"
       gradientUnits="userSpaceOnUse">
      <stop
         stop-color="#64baff"
         offset="0"
         id="stop1072" />
      <stop
         stop-color="#64baff"
         offset=".946"
         id="stop1074" />
      <stop
         stop-color="#64baff"
         offset="1"
         id="stop1076" />
    </linearGradient>
    <linearGradient
       id="linearGradient862-3"
       x1="7.9373"
       x2="7.9373"
       y1="15.081"
       y2="1.852"
       gradientTransform="matrix(1.9999 0 0 1.9999 .00011 .02433)"
       gradientUnits="userSpaceOnUse">
      <stop
         stop-color="#e8e8e8"
         offset="0"
         id="stop1079" />
      <stop
         stop-color="#fcfcfc"
         offset="1"
         id="stop1081" />
    </linearGradient>
    <filter
       id="filter1766"
       x="-0.44318269"
       y="-0.46444839"
       width="1.8863654"
       height="1.9288968"
       color-interpolation-filters="sRGB">
      <feGaussianBlur
         stdDeviation="0.45310276"
         id="feGaussianBlur1084" />
    </filter>
    <filter
       id="filter1033"
       x="-0.05808"
       y="-0.05808"
       width="1.11616"
       height="1.11616"
       color-interpolation-filters="sRGB">
      <feGaussianBlur
         stdDeviation="0.71714282"
         id="feGaussianBlur1087" />
    </filter>
    <clipPath
       id="clipPath1261">
      <path
         d="m0.82939-4.9572c-3.8115 0-6.8801 3.0686-6.8801 6.8801v30.927c0 3.8115 3.0686 6.8796 6.8801 6.8796h31.947c3.8115 0 6.8801-3.0681 6.8801-6.8796v-30.927c0-3.8115-3.0686-6.8801-6.8801-6.8801zm8.1673 7.0816h15.874c3.8115 0 6.8796 3.0681 6.8796 6.8795v15.874c0 3.8115-3.0681 6.8801-6.8796 6.8801h-15.874c-3.8115 0-6.8801-3.0686-6.8801-6.8801v-15.874c0-3.8115 3.0686-6.8795 6.8801-6.8795z"
         fill="#000000"
         style="paint-order:stroke fill markers"
         id="path1090" />
    </clipPath>
    <linearGradient
       id="SVGID_1_"
       gradientUnits="userSpaceOnUse"
       x1="76"
       x2="76"
       xlink:href="#lg1"
       y1="136"
       y2="76" />
    <linearGradient
       id="lg1">
      <stop
         offset="0"
         stop-color="#ffc2cc"
         id="stop2" />
      <stop
         offset="1"
         stop-color="#fff2f4"
         id="stop4" />
    </linearGradient>
    <linearGradient
       id="SVGID_2_"
       gradientUnits="userSpaceOnUse"
       x1="256"
       x2="256"
       xlink:href="#lg2"
       y1="466"
       y2="46" />
    <linearGradient
       id="lg2">
      <stop
         offset="0"
         stop-color="#fd3a84"
         id="stop8" />
      <stop
         offset="1"
         stop-color="#ffa68d"
         id="stop10" />
    </linearGradient>
    <linearGradient
       id="SVGID_3_"
       gradientUnits="userSpaceOnUse"
       x1="256"
       x2="256"
       xlink:href="#lg1"
       y1="406"
       y2="136" />
    <linearGradient
       id="SVGID_4_"
       gradientUnits="userSpaceOnUse"
       x1="256"
       x2="256"
       xlink:href="#lg2"
       y1="346"
       y2="196" />
    <linearGradient
       id="SVGID_5_"
       gradientUnits="userSpaceOnUse"
       x1="436"
       x2="436"
       xlink:href="#lg1"
       y1="196"
       y2="166" />
  </defs>
  <rect
     x="2.1166"
     y="2.1242"
     width="29.634"
     height="29.634"
     rx="6.8799"
     ry="6.8799"
     fill="url(#linearGradient862-3)"
     opacity=".8"
     stroke-width="1.9999"
     id="rect1095"
     style="fill:#ffffff" />
  <rect
     x="2.1166"
     y="2.5109"
     width="29.634"
     height="29.634"
     rx="6.8799"
     ry="6.8799"
     clip-path="url(#clipPath1261)"
     fill="#000000"
     filter="url(#filter1033)"
     opacity=".15"
     stroke-width="1.9999"
     id="rect1097" />
  <rect
     transform="matrix(2 0 0 2 .05277 .99107)"
     x="7.1485"
     y="3.477"
     width="2.6929"
     height="2.5696"
     rx=".3818"
     ry=".3818"
     fill="#000000"
     filter="url(#filter1766)"
     opacity=".15"
     stroke="#000000"
     stroke-dashoffset="1"
     stroke-linecap="round"
     stroke-linejoin="round"
     stroke-width=".21188"
     id="rect1099" />
  <rect
     transform="matrix(2 0 0 2 .05277 .99107)"
     x="3.3566"
     y="3.477"
     width="2.6929"
     height="2.5696"
     rx=".3818"
     ry=".3818"
     fill="#000000"
     filter="url(#filter1766)"
     opacity=".15"
     stroke="#000000"
     stroke-dashoffset="1"
     stroke-linecap="round"
     stroke-linejoin="round"
     stroke-width=".212"
     id="rect1101" />
  <rect
     transform="matrix(2 0 0 2 .05277 .99107)"
     x="10.831"
     y="3.477"
     width="2.6929"
     height="2.5696"
     rx=".3818"
     ry=".3818"
     fill="#000000"
     filter="url(#filter1766)"
     opacity=".15"
     stroke="#000000"
     stroke-dashoffset="1"
     stroke-linecap="round"
     stroke-linejoin="round"
     stroke-width=".21188"
     id="rect1103" />
  <rect
     transform="matrix(2 0 0 2 .05277 .99107)"
     x="3.3566"
     y="7.1773"
     width="2.6929"
     height="2.5696"
     rx=".3818"
     ry=".3818"
     fill="#000000"
     filter="url(#filter1766)"
     opacity=".15"
     stroke="#000000"
     stroke-dashoffset="1"
     stroke-linecap="round"
     stroke-linejoin="round"
     stroke-width=".21188"
     id="rect1105" />
  <rect
     transform="matrix(2 0 0 2 .05277 .99107)"
     x="7.1485"
     y="7.1773"
     width="2.6929"
     height="2.5696"
     rx=".3818"
     ry=".3818"
     fill="#000000"
     filter="url(#filter1766)"
     opacity=".15"
     stroke="#000000"
     stroke-dashoffset="1"
     stroke-linecap="round"
     stroke-linejoin="round"
     stroke-width=".21188"
     id="rect1107" />
  <rect
     transform="matrix(2 0 0 2 .05277 .99107)"
     x="10.831"
     y="7.1773"
     width="2.6929"
     height="2.5696"
     rx=".3818"
     ry=".3818"
     fill="#000000"
     filter="url(#filter1766)"
     opacity=".15"
     stroke="#000000"
     stroke-dashoffset="1"
     stroke-linecap="round"
     stroke-linejoin="round"
     stroke-width=".21188"
     id="rect1109" />
  <rect
     transform="matrix(2 0 0 2 .05277 .99107)"
     x="3.3566"
     y="10.878"
     width="2.6929"
     height="2.5696"
     rx=".3818"
     ry=".3818"
     fill="#000000"
     filter="url(#filter1766)"
     opacity=".15"
     stroke="#000000"
     stroke-dashoffset="1"
     stroke-linecap="round"
     stroke-linejoin="round"
     stroke-width=".21188"
     id="rect1111" />
  <rect
     transform="matrix(2 0 0 2 .05277 .99107)"
     x="7.1485"
     y="10.878"
     width="2.6929"
     height="2.5696"
     rx=".3818"
     ry=".3818"
     fill="#000000"
     filter="url(#filter1766)"
     opacity=".15"
     stroke="#000000"
     stroke-dashoffset="1"
     stroke-linecap="round"
     stroke-linejoin="round"
     stroke-width=".21188"
     id="rect1113" />
  <rect
     transform="matrix(2 0 0 2 .05277 .99107)"
     x="10.831"
     y="10.878"
     width="2.6929"
     height="2.5696"
     rx=".3818"
     ry=".3818"
     fill="#000000"
     filter="url(#filter1766)"
     opacity=".15"
     stroke="#000000"
     stroke-dashoffset="1"
     stroke-linecap="round"
     stroke-linejoin="round"
     stroke-width=".21188"
     id="rect1115" />
  <path
     d="m15.113 6.9708h3.8586c0.42304 0 0.7636 0.34056 0.7636 0.7636v3.612c0 0.42304-0.34056 0.7636-0.7636 0.7636h-3.8586c-0.42304 0-0.7636-0.34056-0.7636-0.7636v-3.612c0-0.42304 0.34056-0.7636 0.7636-0.7636z"
     color="#000000"
     color-rendering="auto"
     dominant-baseline="auto"
     fill="url(#linearGradient1372)"
     image-rendering="auto"
     shape-rendering="auto"
     solid-color="#000000"
     stop-color="#000000"
     stroke-width="2"
     style="font-feature-settings:normal;font-variant-alternates:normal;font-variant-caps:normal;font-variant-east-asian:normal;font-variant-ligatures:normal;font-variant-numeric:normal;font-variant-position:normal;font-variation-settings:normal;inline-size:0;isolation:auto;mix-blend-mode:normal;shape-margin:0;shape-padding:0;text-decoration-color:#000000;text-decoration-line:none;text-decoration-style:solid;text-indent:0;text-orientation:mixed;text-transform:none;white-space:normal;fill:#8a715e;fill-opacity:1"
     id="path1117" />
  <path
     d="m15.113 6.7576c-0.53676 0-0.97656 0.43982-0.97656 0.97656v3.6132c0 0.53676 0.43982 0.97266 0.97656 0.97266h3.8594c0.53676 0 0.97656-0.4359 0.97656-0.97266v-3.6132c0-0.53676-0.43982-0.97656-0.97656-0.97656zm0 0.42578h3.8594c0.30932 0 0.55078 0.24146 0.55078 0.55078v3.6132c0 0.30932-0.24146 0.55078-0.55078 0.55078h-3.8594c-0.30932 0-0.55078-0.24146-0.55078-0.55078v-3.6132c0-0.30932 0.24146-0.55078 0.55078-0.55078z"
     color="#000000"
     color-rendering="auto"
     dominant-baseline="auto"
     fill="url(#linearGradient1380)"
     image-rendering="auto"
     shape-rendering="auto"
     solid-color="#000000"
     stop-color="#000000"
     stroke-width="2"
     style="font-feature-settings:normal;font-variant-alternates:normal;font-variant-caps:normal;font-variant-east-asian:normal;font-variant-ligatures:normal;font-variant-numeric:normal;font-variant-position:normal;font-variation-settings:normal;inline-size:0;isolation:auto;mix-blend-mode:normal;shape-margin:0;shape-padding:0;text-decoration-color:#000000;text-decoration-line:none;text-decoration-style:solid;text-indent:0;text-orientation:mixed;text-transform:none;white-space:normal;fill:#8a715e;fill-opacity:1"
     id="path1119" />
  <path
     d="m7.5296 6.9708h3.8586c0.42304 0 0.7636 0.34056 0.7636 0.7636v3.612c0 0.42304-0.34056 0.7636-0.7636 0.7636h-3.8586c-0.42304 0-0.7636-0.34056-0.7636-0.7636v-3.612c0-0.42304 0.34056-0.7636 0.7636-0.7636z"
     color="#000000"
     color-rendering="auto"
     dominant-baseline="auto"
     fill="url(#linearGradient1384)"
     image-rendering="auto"
     shape-rendering="auto"
     solid-color="#000000"
     stop-color="#000000"
     stroke-width="2"
     style="font-feature-settings:normal;font-variant-alternates:normal;font-variant-caps:normal;font-variant-east-asian:normal;font-variant-ligatures:normal;font-variant-numeric:normal;font-variant-position:normal;font-variation-settings:normal;inline-size:0;isolation:auto;mix-blend-mode:normal;shape-margin:0;shape-padding:0;text-decoration-color:#000000;text-decoration-line:none;text-decoration-style:solid;text-indent:0;text-orientation:mixed;text-transform:none;white-space:normal;fill:#8a715e;fill-opacity:1"
     id="path1121" />
  <path
     d="m7.5312 6.7576c-0.53682 0-0.97656 0.43974-0.97656 0.97656v3.6132c0 0.53682 0.43974 0.97266 0.97656 0.97266h3.8554c0.53682 0 0.97656-0.43584 0.97656-0.97266v-3.6132c0-0.53682-0.43974-0.97656-0.97656-0.97656zm0 0.42578h3.8554c0.30926 0 0.55468 0.24152 0.55468 0.55078v3.6132c0 0.30926-0.24544 0.55078-0.55468 0.55078h-3.8554c-0.30926 0-0.55468-0.24152-0.55468-0.55078v-3.6132c0-0.30926 0.24544-0.55078 0.55468-0.55078z"
     color="#000000"
     color-rendering="auto"
     dominant-baseline="auto"
     fill="url(#linearGradient1386)"
     image-rendering="auto"
     shape-rendering="auto"
     solid-color="#000000"
     stop-color="#000000"
     stroke-width="2"
     style="font-feature-settings:normal;font-variant-alternates:normal;font-variant-caps:normal;font-variant-east-asian:normal;font-variant-ligatures:normal;font-variant-numeric:normal;font-variant-position:normal;font-variation-settings:normal;inline-size:0;isolation:auto;mix-blend-mode:normal;shape-margin:0;shape-padding:0;text-decoration-color:#000000;text-decoration-line:none;text-decoration-style:solid;text-indent:0;text-orientation:mixed;text-transform:none;white-space:normal;fill:#8a715e;fill-opacity:1"
     id="path1123" />
  <path
     d="m22.478 6.9708h3.8586c0.42304 0 0.7636 0.34056 0.7636 0.7636v3.612c0 0.42304-0.34056 0.7636-0.7636 0.7636h-3.8586c-0.42304 0-0.7636-0.34056-0.7636-0.7636v-3.612c0-0.42304 0.34056-0.7636 0.7636-0.7636z"
     color="#000000"
     color-rendering="auto"
     dominant-baseline="auto"
     fill="url(#linearGradient1402)"
     image-rendering="auto"
     shape-rendering="auto"
     solid-color="#000000"
     stop-color="#000000"
     stroke-width="2"
     style="font-feature-settings:normal;font-variant-alternates:normal;font-variant-caps:normal;font-variant-east-asian:normal;font-variant-ligatures:normal;font-variant-numeric:normal;font-variant-position:normal;font-variation-settings:normal;inline-size:0;isolation:auto;mix-blend-mode:normal;shape-margin:0;shape-padding:0;text-decoration-color:#000000;text-decoration-line:none;text-decoration-style:solid;text-indent:0;text-orientation:mixed;text-transform:none;white-space:normal;fill:#8a715e;fill-opacity:1"
     id="path1125" />
  <path
     d="m22.476 6.7576c-0.53676 0-0.97266 0.43982-0.97266 0.97656v3.6132c0 0.53676 0.4359 0.97266 0.97266 0.97266h3.8594c0.53676 0 0.97656-0.4359 0.97656-0.97266v-3.6132c0-0.53676-0.43982-0.97656-0.97656-0.97656zm0 0.42578h3.8594c0.30932 0 0.55078 0.24146 0.55078 0.55078v3.6132c0 0.30932-0.24146 0.55078-0.55078 0.55078h-3.8594c-0.30932 0-0.55078-0.24146-0.55078-0.55078v-3.6132c0-0.30932 0.24146-0.55078 0.55078-0.55078z"
     color="#000000"
     color-rendering="auto"
     dominant-baseline="auto"
     fill="url(#linearGradient1404)"
     image-rendering="auto"
     shape-rendering="auto"
     solid-color="#000000"
     stop-color="#000000"
     stroke-width="2"
     style="font-feature-settings:normal;font-variant-alternates:normal;font-variant-caps:normal;font-variant-east-asian:normal;font-variant-ligatures:normal;font-variant-numeric:normal;font-variant-position:normal;font-variation-settings:normal;inline-size:0;isolation:auto;mix-blend-mode:normal;shape-margin:0;shape-padding:0;text-decoration-color:#000000;text-decoration-line:none;text-decoration-style:solid;text-indent:0;text-orientation:mixed;text-transform:none;white-space:normal;fill:#8a715e;fill-opacity:1"
     id="path1127" />
  <path
     d="m7.5296 14.371h3.8586c0.42304 0 0.7636 0.34056 0.7636 0.7636v3.612c0 0.42304-0.34056 0.7636-0.7636 0.7636h-3.8586c-0.42304 0-0.7636-0.34056-0.7636-0.7636v-3.612c0-0.42304 0.34056-0.7636 0.7636-0.7636z"
     color="#000000"
     color-rendering="auto"
     dominant-baseline="auto"
     fill="url(#linearGradient1514)"
     image-rendering="auto"
     shape-rendering="auto"
     solid-color="#000000"
     stop-color="#000000"
     stroke-width="2"
     style="font-feature-settings:normal;font-variant-alternates:normal;font-variant-caps:normal;font-variant-east-asian:normal;font-variant-ligatures:normal;font-variant-numeric:normal;font-variant-position:normal;font-variation-settings:normal;inline-size:0;isolation:auto;mix-blend-mode:normal;shape-margin:0;shape-padding:0;text-decoration-color:#000000;text-decoration-line:none;text-decoration-style:solid;text-indent:0;text-orientation:mixed;text-transform:none;white-space:normal;fill:#8a715e;fill-opacity:1"
     id="path1129" />
  <path
     d="m7.5312 14.16c-0.53676 0-0.97656 0.43982-0.97656 0.97656v3.6094c0 0.53676 0.43982 0.97656 0.97656 0.97656h3.8554c0.53676 0 0.97656-0.43982 0.97656-0.97656v-3.6094c0-0.53676-0.43982-0.97656-0.97656-0.97656zm0 0.42188h3.8554c0.30932 0 0.55468 0.24536 0.55468 0.55468v3.6094c0 0.30932-0.24536 0.55468-0.55468 0.55468h-3.8554c-0.30932 0-0.55468-0.24536-0.55468-0.55468v-3.6094c0-0.30932 0.24536-0.55468 0.55468-0.55468z"
     color="#000000"
     color-rendering="auto"
     dominant-baseline="auto"
     fill="url(#linearGradient1516)"
     image-rendering="auto"
     shape-rendering="auto"
     solid-color="#000000"
     stop-color="#000000"
     stroke-width="2"
     style="font-feature-settings:normal;font-variant-alternates:normal;font-variant-caps:normal;font-variant-east-asian:normal;font-variant-ligatures:normal;font-variant-numeric:normal;font-variant-position:normal;font-variation-settings:normal;inline-size:0;isolation:auto;mix-blend-mode:normal;shape-margin:0;shape-padding:0;text-decoration-color:#000000;text-decoration-line:none;text-decoration-style:solid;text-indent:0;text-orientation:mixed;text-transform:none;white-space:normal;fill:#8a715e;fill-opacity:1"
     id="path1131" />
  <path
     d="m15.113 14.371h3.8586c0.42304 0 0.7636 0.34056 0.7636 0.7636v3.612c0 0.42304-0.34056 0.7636-0.7636 0.7636h-3.8586c-0.42304 0-0.7636-0.34056-0.7636-0.7636v-3.612c0-0.42304 0.34056-0.7636 0.7636-0.7636z"
     color="#000000"
     color-rendering="auto"
     dominant-baseline="auto"
     fill="url(#linearGradient1560)"
     image-rendering="auto"
     shape-rendering="auto"
     solid-color="#000000"
     stop-color="#000000"
     stroke-width="2"
     style="font-feature-settings:normal;font-variant-alternates:normal;font-variant-caps:normal;font-variant-east-asian:normal;font-variant-ligatures:normal;font-variant-numeric:normal;font-variant-position:normal;font-variation-settings:normal;inline-size:0;isolation:auto;mix-blend-mode:normal;shape-margin:0;shape-padding:0;text-decoration-color:#000000;text-decoration-line:none;text-decoration-style:solid;text-indent:0;text-orientation:mixed;text-transform:none;white-space:normal;fill:#8a715e;fill-opacity:1"
     id="path1133" />
  <path
     d="m15.113 14.16c-0.53676 0-0.97656 0.43982-0.97656 0.97656v3.6094c0 0.53676 0.43982 0.97656 0.97656 0.97656h3.8594c0.53676 0 0.97656-0.43982 0.97656-0.97656v-3.6094c0-0.53676-0.43982-0.97656-0.97656-0.97656zm0 0.42188h3.8594c0.30932 0 0.55078 0.24536 0.55078 0.55468v3.6094c0 0.30932-0.24146 0.55468-0.55078 0.55468h-3.8594c-0.30932 0-0.55078-0.24536-0.55078-0.55468v-3.6094c0-0.30932 0.24146-0.55468 0.55078-0.55468z"
     color="#000000"
     color-rendering="auto"
     dominant-baseline="auto"
     fill="url(#linearGradient1562)"
     image-rendering="auto"
     shape-rendering="auto"
     solid-color="#000000"
     stop-color="#000000"
     stroke-width="2"
     style="font-feature-settings:normal;font-variant-alternates:normal;font-variant-caps:normal;font-variant-east-asian:normal;font-variant-ligatures:normal;font-variant-numeric:normal;font-variant-position:normal;font-variation-settings:normal;inline-size:0;isolation:auto;mix-blend-mode:normal;shape-margin:0;shape-padding:0;text-decoration-color:#000000;text-decoration-line:none;text-decoration-style:solid;text-indent:0;text-orientation:mixed;text-transform:none;white-space:normal;fill:#8a715e;fill-opacity:1"
     id="path1135" />
  <path
     d="m22.478 14.371h3.8586c0.42304 0 0.7636 0.34056 0.7636 0.7636v3.612c0 0.42304-0.34056 0.7636-0.7636 0.7636h-3.8586c-0.42304 0-0.7636-0.34056-0.7636-0.7636v-3.612c0-0.42304 0.34056-0.7636 0.7636-0.7636z"
     color="#000000"
     color-rendering="auto"
     dominant-baseline="auto"
     fill="url(#linearGradient1590)"
     image-rendering="auto"
     shape-rendering="auto"
     solid-color="#000000"
     stop-color="#000000"
     stroke-width="2"
     style="font-feature-settings:normal;font-variant-alternates:normal;font-variant-caps:normal;font-variant-east-asian:normal;font-variant-ligatures:normal;font-variant-numeric:normal;font-variant-position:normal;font-variation-settings:normal;inline-size:0;isolation:auto;mix-blend-mode:normal;shape-margin:0;shape-padding:0;text-decoration-color:#000000;text-decoration-line:none;text-decoration-style:solid;text-indent:0;text-orientation:mixed;text-transform:none;white-space:normal;fill:#8a715e;fill-opacity:1"
     id="path1137" />
  <path
     d="m22.476 14.16c-0.53676 0-0.97266 0.43982-0.97266 0.97656v3.6094c0 0.53676 0.4359 0.97656 0.97266 0.97656h3.8594c0.53676 0 0.97656-0.43982 0.97656-0.97656v-3.6094c0-0.53676-0.43982-0.97656-0.97656-0.97656zm0 0.42188h3.8594c0.30932 0 0.55078 0.24536 0.55078 0.55468v3.6094c0 0.30932-0.24146 0.55468-0.55078 0.55468h-3.8594c-0.30932 0-0.55078-0.24536-0.55078-0.55468v-3.6094c0-0.30932 0.24146-0.55468 0.55078-0.55468z"
     color="#000000"
     color-rendering="auto"
     dominant-baseline="auto"
     fill="url(#linearGradient1592)"
     image-rendering="auto"
     shape-rendering="auto"
     solid-color="#000000"
     stop-color="#000000"
     stroke-width="2"
     style="font-feature-settings:normal;font-variant-alternates:normal;font-variant-caps:normal;font-variant-east-asian:normal;font-variant-ligatures:normal;font-variant-numeric:normal;font-variant-position:normal;font-variation-settings:normal;inline-size:0;isolation:auto;mix-blend-mode:normal;shape-margin:0;shape-padding:0;text-decoration-color:#000000;text-decoration-line:none;text-decoration-style:solid;text-indent:0;text-orientation:mixed;text-transform:none;white-space:normal;fill:#8a715e;fill-opacity:1"
     id="path1139" />
  <path
     d="m7.5296 21.774h3.8586c0.42304 0 0.7636 0.34056 0.7636 0.7636v3.612c0 0.42304-0.34056 0.7636-0.7636 0.7636h-3.8586c-0.42304 0-0.7636-0.34056-0.7636-0.7636v-3.612c0-0.42304 0.34056-0.7636 0.7636-0.7636z"
     color="#000000"
     color-rendering="auto"
     dominant-baseline="auto"
     fill="url(#linearGradient1620)"
     image-rendering="auto"
     shape-rendering="auto"
     solid-color="#000000"
     stop-color="#000000"
     stroke-width="2"
     style="font-feature-settings:normal;font-variant-alternates:normal;font-variant-caps:normal;font-variant-east-asian:normal;font-variant-ligatures:normal;font-variant-numeric:normal;font-variant-position:normal;font-variation-settings:normal;inline-size:0;isolation:auto;mix-blend-mode:normal;shape-margin:0;shape-padding:0;text-decoration-color:#000000;text-decoration-line:none;text-decoration-style:solid;text-indent:0;text-orientation:mixed;text-transform:none;white-space:normal;fill:#8a715e;fill-opacity:1"
     id="path1141" />
  <path
     d="m7.5312 21.562c-0.53676 0-0.97656 0.4359-0.97656 0.97266v3.6132c0 0.53676 0.43982 0.97656 0.97656 0.97656h3.8554c0.53676 0 0.97656-0.4398 0.97656-0.97656v-3.6132c0-0.53676-0.43982-0.97266-0.97656-0.97266zm0 0.42188h3.8554c0.30932 0 0.55468 0.24146 0.55468 0.55078v3.6132c0 0.30932-0.24536 0.55078-0.55468 0.55078h-3.8554c-0.30932 0-0.55468-0.24146-0.55468-0.55078v-3.6132c0-0.30932 0.24536-0.55078 0.55468-0.55078z"
     color="#000000"
     color-rendering="auto"
     dominant-baseline="auto"
     fill="url(#linearGradient1622)"
     image-rendering="auto"
     shape-rendering="auto"
     solid-color="#000000"
     stop-color="#000000"
     stroke-width="2"
     style="font-feature-settings:normal;font-variant-alternates:normal;font-variant-caps:normal;font-variant-east-asian:normal;font-variant-ligatures:normal;font-variant-numeric:normal;font-variant-position:normal;font-variation-settings:normal;inline-size:0;isolation:auto;mix-blend-mode:normal;shape-margin:0;shape-padding:0;text-decoration-color:#000000;text-decoration-line:none;text-decoration-style:solid;text-indent:0;text-orientation:mixed;text-transform:none;white-space:normal;fill:#8a715e;fill-opacity:1"
     id="path1143" />
  <path
     d="m15.113 21.774h3.8586c0.42304 0 0.7636 0.34056 0.7636 0.7636v3.612c0 0.42304-0.34056 0.7636-0.7636 0.7636h-3.8586c-0.42304 0-0.7636-0.34056-0.7636-0.7636v-3.612c0-0.42304 0.34056-0.7636 0.7636-0.7636z"
     color="#000000"
     color-rendering="auto"
     dominant-baseline="auto"
     fill="url(#linearGradient1653)"
     image-rendering="auto"
     shape-rendering="auto"
     solid-color="#000000"
     stop-color="#000000"
     stroke-width="2"
     style="font-feature-settings:normal;font-variant-alternates:normal;font-variant-caps:normal;font-variant-east-asian:normal;font-variant-ligatures:normal;font-variant-numeric:normal;font-variant-position:normal;font-variation-settings:normal;inline-size:0;isolation:auto;mix-blend-mode:normal;shape-margin:0;shape-padding:0;text-decoration-color:#000000;text-decoration-line:none;text-decoration-style:solid;text-indent:0;text-orientation:mixed;text-transform:none;white-space:normal;fill:#8a715e;fill-opacity:1"
     id="path1145" />
  <path
     d="m15.113 21.562c-0.53676 0-0.97656 0.4359-0.97656 0.97266v3.6132c0 0.53676 0.43982 0.97656 0.97656 0.97656h3.8594c0.53676 0 0.97656-0.4398 0.97656-0.97656v-3.6132c0-0.53676-0.43982-0.97266-0.97656-0.97266zm0 0.42188h3.8594c0.30932 0 0.55078 0.24146 0.55078 0.55078v3.6132c0 0.30932-0.24146 0.55078-0.55078 0.55078h-3.8594c-0.30932 0-0.55078-0.24146-0.55078-0.55078v-3.6132c0-0.30932 0.24146-0.55078 0.55078-0.55078z"
     color="#000000"
     color-rendering="auto"
     dominant-baseline="auto"
     fill="url(#linearGradient1655)"
     image-rendering="auto"
     shape-rendering="auto"
     solid-color="#000000"
     stop-color="#000000"
     stroke-width="2"
     style="font-feature-settings:normal;font-variant-alternates:normal;font-variant-caps:normal;font-variant-east-asian:normal;font-variant-ligatures:normal;font-variant-numeric:normal;font-variant-position:normal;font-variation-settings:normal;inline-size:0;isolation:auto;mix-blend-mode:normal;shape-margin:0;shape-padding:0;text-decoration-color:#000000;text-decoration-line:none;text-decoration-style:solid;text-indent:0;text-orientation:mixed;text-transform:none;white-space:normal;fill:#8a715e;fill-opacity:1"
     id="path1147" />
  <path
     d="m22.478 21.774h3.8586c0.42304 0 0.7636 0.34056 0.7636 0.7636v3.612c0 0.42304-0.34056 0.7636-0.7636 0.7636h-3.8586c-0.42304 0-0.7636-0.34056-0.7636-0.7636v-3.612c0-0.42304 0.34056-0.7636 0.7636-0.7636z"
     color="#000000"
     color-rendering="auto"
     dominant-baseline="auto"
     fill="url(#linearGradient1685)"
     image-rendering="auto"
     shape-rendering="auto"
     solid-color="#000000"
     stop-color="#000000"
     stroke-width="2"
     style="font-feature-settings:normal;font-variant-alternates:normal;font-variant-caps:normal;font-variant-east-asian:normal;font-variant-ligatures:normal;font-variant-numeric:normal;font-variant-position:normal;font-variation-settings:normal;inline-size:0;isolation:auto;mix-blend-mode:normal;shape-margin:0;shape-padding:0;text-decoration-color:#000000;text-decoration-line:none;text-decoration-style:solid;text-indent:0;text-orientation:mixed;text-transform:none;white-space:normal;fill:#8a715e;fill-opacity:1"
     id="path1149" />
  <path
     d="m22.476 21.562c-0.53676 0-0.97266 0.4359-0.97266 0.97266v3.6132c0 0.53676 0.4359 0.97656 0.97266 0.97656h3.8594c0.53676 0 0.97656-0.4398 0.97656-0.97656v-3.6132c0-0.53676-0.43982-0.97266-0.97656-0.97266zm0 0.42188h3.8594c0.30932 0 0.55078 0.24146 0.55078 0.55078v3.6132c0 0.30932-0.24146 0.55078-0.55078 0.55078h-3.8594c-0.30932 0-0.55078-0.24146-0.55078-0.55078v-3.6132c0-0.30932 0.24146-0.55078 0.55078-0.55078z"
     color="#000000"
     color-rendering="auto"
     dominant-baseline="auto"
     fill="url(#linearGradient1687)"
     image-rendering="auto"
     shape-rendering="auto"
     solid-color="#000000"
     stop-color="#000000"
     stroke-width="2"
     style="font-feature-settings:normal;font-variant-alternates:normal;font-variant-caps:normal;font-variant-east-asian:normal;font-variant-ligatures:normal;font-variant-numeric:normal;font-variant-position:normal;font-variation-settings:normal;inline-size:0;isolation:auto;mix-blend-mode:normal;shape-margin:0;shape-padding:0;text-decoration-color:#000000;text-decoration-line:none;text-decoration-style:solid;text-indent:0;text-orientation:mixed;text-transform:none;white-space:normal;fill:#8a715e;fill-opacity:1"
     id="path1151" />
  <style
     id="style1153"><![CDATA[.B{clip-path:url(#C)}.C{fill:#3e2723}.D{fill-opacity:.15}.E{fill-opacity:.2}]]></style>
  <style
     id="style1155"><![CDATA[.B{clip-path:url(#C)}.C{fill:#3e2723}.D{fill-opacity:.15}.E{fill-opacity:.2}]]></style>
  <g
     id="g884"
     transform="matrix(0.26457812,0,0,0.26457812,-281.17632,-54.610422)">
    <g
       id="g27">
      <path
         d="m 76,136 c -8.284,0 -15,-6.716 -15,-15 V 91 c 0,-8.284 6.716,-15 15,-15 8.284,0 15,6.716 15,15 v 30 c 0,8.284 -6.716,15 -15,15 z"
         fill="url(#SVGID_1_)"
         id="path17"
         style="fill:url(#SVGID_1_)" />
      <path
         d="M 497,466 H 15 C 6.716,466 0,459.284 0,451 V 121 c 0,-8.284 6.716,-15 15,-15 H 126.729 L 152.583,54.292 C 155.124,49.21 160.318,46 166,46 h 180 c 5.682,0 10.876,3.21 13.416,8.292 L 385.271,106 H 497 c 8.284,0 15,6.716 15,15 v 330 c 0,8.284 -6.716,15 -15,15 z"
         fill="url(#SVGID_2_)"
         id="path19"
         style="fill:url(#SVGID_2_)" />
      <path
         d="m 256,406 c -74.439,0 -135,-60.561 -135,-135 0,-74.439 60.561,-135 135,-135 74.439,0 135,60.561 135,135 0,74.439 -60.561,135 -135,135 z"
         fill="url(#SVGID_3_)"
         id="path21"
         style="fill:url(#SVGID_3_)" />
      <path
         d="m 256,346 c -41.355,0 -75,-33.645 -75,-75 0,-41.355 33.645,-75 75,-75 41.355,0 75,33.645 75,75 0,41.355 -33.645,75 -75,75 z"
         fill="url(#SVGID_4_)"
         id="path23"
         style="fill:url(#SVGID_4_)" />
      <circle
         cx="436"
         cy="181"
         fill="url(#SVGID_5_)"
         r="15"
         id="circle25"
         style="fill:url(#SVGID_5_)" />
    </g>
  </g>
</svg>
